<svg width="76" height="75" viewBox="0 0 76 75" fill="none" xmlns="http://www.w3.org/2000/svg">
<path d="M2 39.5C0.895432 39.5 9.65645e-08 38.6046 0 37.5C-9.65645e-08 36.3954 0.895431 35.5 2 35.5L2 39.5ZM75.4142 36.0858C76.1953 36.8668 76.1953 38.1332 75.4142 38.9142L62.6863 51.6421C61.9052 52.4232 60.6389 52.4232 59.8579 51.6421C59.0768 50.8611 59.0768 49.5948 59.8579 48.8137L71.1716 37.5L59.8579 26.1863C59.0768 25.4052 59.0768 24.1389 59.8579 23.3579C60.6389 22.5768 61.9052 22.5768 62.6863 23.3579L75.4142 36.0858ZM2 37.5L2 35.5L74 35.5L74 37.5L74 39.5L2 39.5L2 37.5Z" fill="#304D6D"/>
</svg>
