<svg width="48" height="48" viewBox="0 0 48 48" fill="none" xmlns="http://www.w3.org/2000/svg">
<path d="M35.002 13L13.002 35M17.002 21V13M13.002 17H21.002M27.002 31H35.002M15.602 42H32.402C35.7622 42 37.4424 42 38.7259 41.346C39.8549 40.7708 40.7728 39.8529 41.348 38.7239C42.002 37.4405 42.002 35.7603 42.002 32.4V15.6C42.002 12.2397 42.002 10.5595 41.348 9.27608C40.7728 8.14712 39.8549 7.2292 38.7259 6.65396C37.4424 6 35.7622 6 32.402 6H15.602C12.2417 6 10.5615 6 9.27799 6.65396C8.14903 7.2292 7.23115 8.14712 6.65591 9.27608C6.00195 10.5595 6.00195 12.2397 6.00195 15.6V32.4C6.00195 35.7603 6.00195 37.4405 6.65591 38.7239C7.23115 39.8529 8.14903 40.7708 9.27799 41.346C10.5615 42 12.2417 42 15.602 42Z" stroke="#304D6D" stroke-width="3" stroke-linecap="round" stroke-linejoin="round"/>
</svg>
