<svg width="41" height="45" viewBox="0 0 41 45" fill="none" xmlns="http://www.w3.org/2000/svg">
<path d="M9.21628 38.4671H6.16628C3.92032 38.4671 2.09961 36.6464 2.09961 34.4005V5.93384C2.09961 3.6879 3.92032 1.86719 6.16628 1.86719H34.6329C36.8789 1.86719 38.6996 3.6879 38.6996 5.93384V34.4005C38.6996 36.6464 36.8789 38.4671 34.6329 38.4671H31.5829M20.3996 36.4338C23.7685 36.4338 26.4996 33.7029 26.4996 30.3338C26.4996 26.965 23.7685 24.2338 20.3996 24.2338C17.0307 24.2338 14.2996 26.965 14.2996 30.3338C14.2996 33.7029 17.0307 36.4338 20.3996 36.4338ZM20.3996 36.4338L20.4432 36.4334L13.9513 42.9254L8.20011 37.1742L14.3396 31.0349M20.3996 36.4338L26.8917 42.9254L32.6428 37.1742L26.5033 31.0349M14.2996 10.0005H26.4996M10.2329 17.1171H30.5663" stroke="#304D6D" stroke-width="3" stroke-linecap="round" stroke-linejoin="round"/>
</svg>
