<svg width="44" height="44" viewBox="0 0 44 44" fill="none" xmlns="http://www.w3.org/2000/svg">
<path d="M22.0039 27.5996C15.3765 27.5996 10.0039 22.227 10.0039 15.5996V4.4885C10.0039 3.6608 10.0039 3.24695 10.1245 2.91557C10.3267 2.36003 10.7644 1.92243 11.3199 1.72023C11.6512 1.59961 12.0651 1.59961 12.8928 1.59961H31.115C31.9427 1.59961 32.3565 1.59961 32.688 1.72023C33.2435 1.92243 33.6811 2.36003 33.8833 2.91557C34.0039 3.24695 34.0039 3.6608 34.0039 4.4885V15.5996C34.0039 22.227 28.6313 27.5996 22.0039 27.5996ZM22.0039 27.5996V33.5996M34.0039 5.59961H39.0039C39.9358 5.59961 40.4017 5.59961 40.7693 5.75185C41.2593 5.95481 41.6487 6.34417 41.8516 6.83425C42.0039 7.20177 42.0039 7.66769 42.0039 8.59961V9.59961C42.0039 11.4595 42.0039 12.3895 41.7995 13.1525C41.2447 15.223 39.6274 16.8403 37.5568 17.3951C36.7938 17.5996 35.8638 17.5996 34.0039 17.5996M10.0039 5.59961H5.00391C4.07202 5.59961 3.60608 5.59961 3.23854 5.75185C2.74848 5.95481 2.35913 6.34417 2.15615 6.83425C2.00391 7.20177 2.00391 7.66769 2.00391 8.59961V9.59961C2.00391 11.4595 2.00391 12.3895 2.20835 13.1525C2.76315 15.223 4.38043 16.8403 6.45101 17.3951C7.21397 17.5996 8.14397 17.5996 10.0039 17.5996M12.8928 41.5996H31.115C31.606 41.5996 32.0039 41.2016 32.0039 40.7107C32.0039 36.7834 28.8201 33.5996 24.8928 33.5996H19.115C15.1877 33.5996 12.0039 36.7834 12.0039 40.7107C12.0039 41.2016 12.4019 41.5996 12.8928 41.5996Z" stroke="#304D6D" stroke-width="3" stroke-linecap="round" stroke-linejoin="round"/>
</svg>
