<svg width="48" height="48" viewBox="0 0 48 48" fill="none" xmlns="http://www.w3.org/2000/svg">
<path d="M20.0039 29.0694C22.471 27.6435 25.5366 27.6435 28.0037 29.0694M4.00391 30L5.40688 15.9702C5.46008 15.4383 5.48668 15.1723 5.52746 14.9442C6.00836 12.254 8.24629 10.2287 10.9709 10.0179C11.2021 10 11.4693 10 12.0039 10M44.0039 30L42.6009 15.9702C42.5477 15.4383 42.5212 15.1723 42.4804 14.9442C41.9995 12.254 39.7615 10.2287 37.0369 10.0179C36.8057 10 36.5385 10 36.0039 10M17.6608 24.3431C20.7849 27.4674 20.7849 32.5326 17.6608 35.6569C14.5366 38.781 9.47125 38.781 6.34704 35.6569C3.22286 32.5326 3.22286 27.4674 6.34704 24.3431C9.47125 21.219 14.5365 21.219 17.6608 24.3431ZM41.6608 24.3431C44.7849 27.4674 44.7849 32.5326 41.6608 35.6569C38.5366 38.781 33.4713 38.781 30.347 35.6569C27.2229 32.5326 27.2229 27.4674 30.347 24.3431C33.4713 21.219 38.5365 21.219 41.6608 24.3431Z" stroke="#304D6D" stroke-width="3" stroke-linecap="round" stroke-linejoin="round"/>
</svg>
