<svg width="48" height="48" viewBox="0 0 48 48" fill="none" xmlns="http://www.w3.org/2000/svg">
<path d="M9.92192 19.9991V32.0215C9.92192 32.7394 9.92192 33.0983 10.0303 33.4153C10.1262 33.6955 10.2827 33.9507 10.4884 34.1625C10.7211 34.402 11.0396 34.5626 11.6765 34.8836L22.3886 40.2836C22.9091 40.546 23.1694 40.6772 23.4423 40.7288C23.6841 40.7745 23.9321 40.7745 24.1738 40.7288C24.4469 40.6772 24.7071 40.546 25.2276 40.2836L35.9398 34.8836C36.5767 34.5626 36.8951 34.402 37.1277 34.1625C37.3335 33.9507 37.4899 33.6955 37.5859 33.4153C37.6943 33.0983 37.6943 32.7394 37.6943 32.0215V19.9991M3.9707 16.9991L23.0983 7.35692C23.3586 7.22574 23.4887 7.16014 23.6251 7.13433C23.7461 7.11147 23.8701 7.11147 23.991 7.13433C24.1274 7.16014 24.2576 7.22574 24.5178 7.35692L43.6455 16.9991L24.5178 26.6414C24.2576 26.7725 24.1274 26.8382 23.991 26.864C23.8701 26.8868 23.7461 26.8868 23.6251 26.864C23.4887 26.8382 23.3586 26.7725 23.0983 26.6414L3.9707 16.9991Z" stroke="#304D6D" stroke-width="3" stroke-linecap="round" stroke-linejoin="round"/>
</svg>
