<svg width="120" height="37" viewBox="0 0 120 37" fill="none" xmlns="http://www.w3.org/2000/svg">
<path d="M41.8791 4.54781C42.3058 4.04114 42.7591 3.66114 43.2391 3.40781C43.7324 3.15447 44.3191 3.02781 44.9991 3.02781C45.1724 3.02781 45.3391 3.03447 45.4991 3.04781C45.6591 3.06114 45.8058 3.08114 45.9391 3.10781V5.70781C45.6324 5.70781 45.3191 5.71447 44.9991 5.72781C44.6924 5.72781 44.3991 5.75447 44.1191 5.80781C43.8391 5.86114 43.5658 5.94781 43.2991 6.06781C43.0458 6.17447 42.8191 6.33447 42.6191 6.54781C42.3124 6.89447 42.1191 7.26781 42.0391 7.66781C41.9724 8.06781 41.9391 8.52114 41.9391 9.02781V13.7678H39.1191V3.22781H41.7191L41.8791 4.54781ZM52.2013 11.4278C52.9746 11.4278 53.5213 11.2278 53.8413 10.8278C54.1613 10.4144 54.308 9.82781 54.2813 9.06781V3.22781H57.1013V9.14781C57.1013 9.88114 57.028 10.5078 56.8813 11.0278C56.748 11.5478 56.5146 12.0211 56.1813 12.4478C55.928 12.7678 55.648 13.0144 55.3413 13.1878C55.048 13.3611 54.728 13.5078 54.3813 13.6278C54.048 13.7344 53.688 13.8078 53.3013 13.8478C52.928 13.9011 52.5613 13.9278 52.2013 13.9278C51.3746 13.9278 50.6213 13.8144 49.9413 13.5878C49.2613 13.3611 48.6946 12.9811 48.2413 12.4478C47.8946 12.0211 47.6546 11.5478 47.5213 11.0278C47.388 10.5078 47.3213 9.88114 47.3213 9.14781V3.22781H50.1413V9.06781C50.128 9.82781 50.288 10.4078 50.6213 10.8078C50.9546 11.2078 51.4813 11.4144 52.2013 11.4278ZM64.0949 11.6278C64.4949 11.6278 64.8349 11.5678 65.1149 11.4478C65.4082 11.3144 65.6482 11.1011 65.8349 10.8078H68.7949C68.6482 11.3544 68.4215 11.8278 68.1149 12.2278C67.8215 12.6278 67.4615 12.9544 67.0349 13.2078C66.6215 13.4611 66.1615 13.6478 65.6549 13.7678C65.1482 13.8744 64.6149 13.9278 64.0549 13.9278C62.3482 13.9278 61.0549 13.4478 60.1749 12.4878C59.3082 11.5278 58.8749 10.1811 58.8749 8.44781C58.8749 7.66114 58.9882 6.93447 59.2149 6.26781C59.4549 5.60114 59.7882 5.02781 60.2149 4.54781C60.6415 4.05447 61.1682 3.67447 61.7949 3.40781C62.4349 3.14114 63.1615 3.00781 63.9749 3.00781C64.9215 3.00781 65.7415 3.17447 66.4349 3.50781C67.1282 3.84114 67.6749 4.30114 68.0749 4.88781C68.4882 5.46114 68.7615 6.13447 68.8949 6.90781C69.0415 7.68114 69.0415 8.50781 68.8949 9.38781H61.6949C61.7482 10.0144 61.9682 10.5478 62.3549 10.9878C62.7415 11.4144 63.3215 11.6278 64.0949 11.6278ZM66.2749 7.44781C66.2749 7.11447 66.2149 6.82114 66.0949 6.56781C65.9749 6.30114 65.8149 6.08781 65.6149 5.92781C65.4149 5.75447 65.1749 5.62781 64.8949 5.54781C64.6282 5.46781 64.3482 5.42781 64.0549 5.42781C63.3482 5.44114 62.7949 5.63447 62.3949 6.00781C62.0082 6.36781 61.7815 6.84781 61.7149 7.44781H66.2749Z" fill="black"/>
<path d="M43.9601 28.6195C44.7334 28.6195 45.2801 28.4195 45.6001 28.0195C45.9201 27.6062 46.0668 27.0195 46.0401 26.2595V20.4195H48.8601V26.3395C48.8601 27.0728 48.7868 27.6995 48.6401 28.2195C48.5068 28.7395 48.2734 29.2128 47.9401 29.6395C47.6868 29.9595 47.4068 30.2062 47.1001 30.3795C46.8068 30.5528 46.4868 30.6995 46.1401 30.8195C45.8068 30.9262 45.4468 30.9995 45.0601 31.0395C44.6868 31.0928 44.3201 31.1195 43.9601 31.1195C43.1334 31.1195 42.3801 31.0062 41.7001 30.7795C41.0201 30.5528 40.4534 30.1728 40.0001 29.6395C39.6534 29.2128 39.4134 28.7395 39.2801 28.2195C39.1468 27.6995 39.0801 27.0728 39.0801 26.3395V20.4195H41.9001V26.2595C41.8868 27.0195 42.0468 27.5995 42.3801 27.9995C42.7134 28.3995 43.2401 28.6062 43.9601 28.6195ZM56.2337 28.5995C56.447 28.5995 56.687 28.5595 56.9537 28.4795C57.2204 28.3995 57.4537 28.2995 57.6537 28.1795L58.4537 30.3195C58.267 30.4395 58.0537 30.5528 57.8137 30.6595C57.587 30.7528 57.3337 30.8395 57.0537 30.9195C56.787 30.9862 56.5337 31.0328 56.2937 31.0595C56.0537 31.0862 55.8337 31.0995 55.6337 31.0995C54.9937 31.0995 54.427 31.0128 53.9337 30.8395C53.4537 30.6662 53.0537 30.4062 52.7337 30.0595C52.4404 29.7662 52.2204 29.3862 52.0737 28.9195C51.9404 28.4528 51.8737 27.9262 51.8737 27.3395V22.8795H50.2737V20.4195H51.8737V17.5395H54.6937V20.4195H57.7937V22.8795H54.6937V26.6795C54.6937 26.9195 54.707 27.1528 54.7337 27.3795C54.7737 27.5928 54.847 27.7928 54.9537 27.9795C55.0737 28.1662 55.2337 28.3195 55.4337 28.4395C55.647 28.5462 55.9137 28.5995 56.2337 28.5995ZM64.5279 31.1195C62.8212 31.1195 61.5079 30.6395 60.5879 29.6795C59.6679 28.7062 59.2079 27.3595 59.2079 25.6395C59.2079 24.8128 59.3279 24.0662 59.5679 23.3995C59.8212 22.7195 60.1679 22.1395 60.6079 21.6595C61.0612 21.1795 61.6146 20.8195 62.2679 20.5795C62.9346 20.3262 63.6879 20.1995 64.5279 20.1995C65.3546 20.1995 66.0946 20.3262 66.7479 20.5795C67.4146 20.8195 67.9746 21.1795 68.4279 21.6595C68.8946 22.1395 69.2479 22.7195 69.4879 23.3995C69.7412 24.0662 69.8679 24.8128 69.8679 25.6395C69.8679 27.3728 69.4012 28.7195 68.4679 29.6795C67.5479 30.6395 66.2346 31.1195 64.5279 31.1195ZM64.5279 22.7195C63.6612 22.7195 63.0212 22.9995 62.6079 23.5595C62.1946 24.1195 61.9879 24.8195 61.9879 25.6595C61.9879 26.5128 62.1946 27.2195 62.6079 27.7795C63.0212 28.3395 63.6612 28.6195 64.5279 28.6195C65.3946 28.6195 66.0279 28.3395 66.4279 27.7795C66.8279 27.2195 67.0279 26.5128 67.0279 25.6595C67.0279 24.8195 66.8279 24.1195 66.4279 23.5595C66.0279 22.9995 65.3946 22.7195 64.5279 22.7195ZM74.4387 21.7395C74.8654 21.2328 75.3187 20.8528 75.7987 20.5995C76.292 20.3462 76.8787 20.2195 77.5587 20.2195C77.732 20.2195 77.8987 20.2262 78.0587 20.2395C78.2187 20.2528 78.3654 20.2728 78.4987 20.2995V22.8995C78.192 22.8995 77.8787 22.9062 77.5587 22.9195C77.252 22.9195 76.9587 22.9462 76.6787 22.9995C76.3987 23.0528 76.1254 23.1395 75.8587 23.2595C75.6054 23.3662 75.3787 23.5262 75.1787 23.7395C74.872 24.0862 74.6787 24.4595 74.5987 24.8595C74.532 25.2595 74.4987 25.7128 74.4987 26.2195V30.9595H71.6787V20.4195H74.2787L74.4387 21.7395ZM81.4809 15.5195C82.0009 15.5195 82.4209 15.6728 82.7409 15.9795C83.0609 16.2862 83.2209 16.6928 83.2209 17.1995C83.2209 17.7328 83.0609 18.1528 82.7409 18.4595C82.4209 18.7528 82.0009 18.8995 81.4809 18.8995C80.9742 18.8995 80.5542 18.7528 80.2209 18.4595C79.9009 18.1528 79.7409 17.7328 79.7409 17.1995C79.7409 16.6928 79.9009 16.2862 80.2209 15.9795C80.5542 15.6728 80.9742 15.5195 81.4809 15.5195ZM82.9009 30.9595H80.0809V20.4195H82.9009V30.9595ZM88.132 21.7595C88.9853 20.7328 90.0386 20.2128 91.292 20.1995C91.972 20.1862 92.572 20.2995 93.092 20.5395C93.612 20.7662 94.032 21.0795 94.352 21.4795C94.7386 21.9462 95.0053 22.4928 95.152 23.1195C95.2986 23.7328 95.372 24.4195 95.372 25.1795V30.9595H92.532V25.3995C92.532 25.0262 92.492 24.6728 92.412 24.3395C92.3453 23.9928 92.2253 23.6995 92.052 23.4595C91.8786 23.2062 91.6453 23.0195 91.352 22.8995C91.072 22.7795 90.752 22.7195 90.392 22.7195C89.9386 22.7328 89.552 22.8328 89.232 23.0195C88.9253 23.2062 88.692 23.4462 88.532 23.7395C88.372 24.0195 88.2586 24.3395 88.192 24.6995C88.1386 25.0462 88.112 25.3995 88.112 25.7595V30.9595H85.292V20.4195H87.992L88.132 21.7595ZM105.258 29.8795C104.858 30.3328 104.378 30.6528 103.818 30.8395C103.258 31.0262 102.651 31.1195 101.998 31.1195C101.345 31.1195 100.705 31.0195 100.078 30.8195C99.4647 30.6062 98.9314 30.2662 98.4781 29.7995C97.9714 29.2662 97.6181 28.6528 97.4181 27.9595C97.2181 27.2662 97.1181 26.5528 97.1181 25.8195C97.1181 24.0862 97.5981 22.6995 98.5581 21.6595C98.9714 21.2062 99.5047 20.8528 100.158 20.5995C100.825 20.3462 101.538 20.2262 102.298 20.2395C102.791 20.2128 103.325 20.2995 103.898 20.4995C104.471 20.6995 104.965 21.0328 105.378 21.4995L105.678 20.4195H108.118V30.2995C108.118 30.7262 108.091 31.1462 108.038 31.5595C107.998 31.9862 107.925 32.3928 107.818 32.7795C107.711 33.1795 107.551 33.5595 107.338 33.9195C107.098 34.3595 106.805 34.7328 106.458 35.0395C106.125 35.3462 105.751 35.5995 105.338 35.7995C104.925 36.0128 104.485 36.1662 104.018 36.2595C103.551 36.3528 103.078 36.3995 102.598 36.3995C101.985 36.3995 101.398 36.3262 100.838 36.1795C100.278 36.0462 99.7647 35.8195 99.2981 35.4995C98.8447 35.1928 98.4647 34.7995 98.1581 34.3195C97.8647 33.8395 97.6714 33.2662 97.5781 32.5995H100.578C100.631 32.9195 100.845 33.2062 101.218 33.4595C101.591 33.7128 102.045 33.8395 102.578 33.8395C103.151 33.8395 103.618 33.7262 103.978 33.4995C104.351 33.2728 104.631 32.9728 104.818 32.5995C105.005 32.2262 105.125 31.7995 105.178 31.3195C105.231 30.8395 105.258 30.3595 105.258 29.8795ZM102.638 28.6195C103.078 28.6195 103.465 28.5395 103.798 28.3795C104.145 28.2195 104.425 28.0062 104.638 27.7395C104.851 27.4595 105.011 27.1395 105.118 26.7795C105.225 26.4062 105.278 26.0128 105.278 25.5995C105.278 24.7728 105.045 24.0928 104.578 23.5595C104.125 23.0128 103.471 22.7328 102.618 22.7195C102.178 22.7195 101.785 22.7995 101.438 22.9595C101.105 23.1195 100.825 23.3328 100.598 23.5995C100.385 23.8662 100.225 24.1795 100.118 24.5395C100.011 24.8995 99.9581 25.2862 99.9581 25.6995C99.9581 26.1395 100.011 26.5395 100.118 26.8995C100.238 27.2462 100.411 27.5528 100.638 27.8195C100.865 28.0728 101.145 28.2728 101.478 28.4195C101.811 28.5528 102.198 28.6195 102.638 28.6195Z" fill="black"/>
<path d="M29.6907 0H6.18556C2.76937 0 0 2.76937 0 6.18556V29.6906C0 33.1068 2.76937 35.8762 6.18556 35.8762H29.6907C33.1069 35.8762 35.8763 33.1068 35.8763 29.6906V6.18556C35.8763 2.76937 33.1069 0 29.6907 0Z" fill="black"/>
<path d="M7.52167 8.91126C6.67049 8.91126 5.98047 8.22124 5.98047 7.37006V5.27753C5.98047 4.42634 6.67049 3.73633 7.52167 3.73633H27.6094C28.4605 3.73633 29.1506 4.42635 29.1506 5.27753V7.37006C29.1506 8.22125 28.4605 8.91126 27.6094 8.91126H20.4175V30.5971C20.4175 31.4483 19.7275 32.1383 18.8763 32.1383H16.2547C15.4035 32.1383 14.7135 31.4483 14.7135 30.5971V8.91126H7.52167Z" fill="white"/>
</svg>
