<svg width="48" height="48" viewBox="0 0 48 48" fill="none" xmlns="http://www.w3.org/2000/svg">
<path d="M22.002 8H15.602C12.2417 8 10.5615 8 9.27799 8.654C8.14903 9.2292 7.23115 10.1471 6.65591 11.2761C6.00195 12.5595 6.00195 14.2397 6.00195 17.6V28C6.00195 29.8599 6.00195 30.7899 6.2064 31.5529C6.7612 33.6234 8.37847 35.2407 10.449 35.7955C11.2121 36 12.142 36 14.002 36V40.671C14.002 41.7367 14.002 42.2695 14.2204 42.5432C14.4104 42.7813 14.6985 42.9197 15.003 42.9194C15.3532 42.919 15.7693 42.5862 16.6014 41.9204L21.3724 38.1037C22.347 37.324 22.8343 36.9342 23.377 36.6569C23.8584 36.411 24.3708 36.2312 24.9004 36.1225C25.4973 36 26.1214 36 27.3694 36H30.402C33.7622 36 35.4424 36 36.7259 35.3461C37.8549 34.7708 38.7728 33.8529 39.348 32.7239C40.002 31.4405 40.002 29.7603 40.002 26.4V26M40.2446 7.75736C42.5878 10.1005 42.5878 13.8995 40.2446 16.2426C37.9014 18.5858 34.1025 18.5858 31.7594 16.2426C29.4162 13.8995 29.4162 10.1005 31.7594 7.75736C34.1025 5.41421 37.9014 5.41421 40.2446 7.75736Z" stroke="#304D6D" stroke-width="3" stroke-linecap="round" stroke-linejoin="round"/>
</svg>
