<svg width="36" height="36" viewBox="0 0 36 36" fill="none" xmlns="http://www.w3.org/2000/svg">
<path d="M29.6907 0H6.18556C2.76937 0 0 2.76937 0 6.18556V29.6906C0 33.1068 2.76937 35.8762 6.18556 35.8762H29.6907C33.1069 35.8762 35.8763 33.1068 35.8763 29.6906V6.18556C35.8763 2.76937 33.1069 0 29.6907 0Z" fill="black"/>
<path d="M7.52167 8.91126C6.67049 8.91126 5.98047 8.22124 5.98047 7.37006V5.27753C5.98047 4.42634 6.67049 3.73633 7.52167 3.73633H27.6094C28.4605 3.73633 29.1506 4.42635 29.1506 5.27753V7.37006C29.1506 8.22125 28.4605 8.91126 27.6094 8.91126H20.4175V30.5971C20.4175 31.4483 19.7275 32.1383 18.8763 32.1383H16.2547C15.4035 32.1383 14.7135 31.4483 14.7135 30.5971V8.91126H7.52167Z" fill="white"/>
</svg>
