<svg width="76" height="75" viewBox="0 0 76 75" fill="none" xmlns="http://www.w3.org/2000/svg">
<path d="M74 39.5C75.1046 39.5 76 38.6046 76 37.5C76 36.3954 75.1046 35.5 74 35.5L74 39.5ZM0.585787 36.0858C-0.195262 36.8668 -0.195262 38.1332 0.585786 38.9142L13.3137 51.6421C14.0948 52.4232 15.3611 52.4232 16.1421 51.6421C16.9232 50.8611 16.9232 49.5948 16.1421 48.8137L4.82843 37.5L16.1421 26.1863C16.9232 25.4052 16.9232 24.1389 16.1421 23.3579C15.3611 22.5768 14.0948 22.5768 13.3137 23.3579L0.585787 36.0858ZM74 37.5L74 35.5L2 35.5L2 37.5L2 39.5L74 39.5L74 37.5Z" fill="#304D6D"/>
</svg>
