<svg width="48" height="48" viewBox="0 0 48 48" fill="none" xmlns="http://www.w3.org/2000/svg">
<path d="M20.3288 4.00017V13.321C20.3288 13.7554 20.3288 13.9725 20.2614 14.1453C20.198 14.3082 20.1139 14.4266 19.9803 14.5413C19.8385 14.6628 19.609 14.7456 19.1498 14.911C13.3135 17.0147 9.14844 22.5288 9.14844 29C9.14844 37.2842 15.9742 44 24.3943 44C32.8144 44 39.6402 37.2842 39.6402 29C39.6402 22.5288 35.4752 17.0147 29.6388 14.911C29.1796 14.7456 28.9501 14.6628 28.8083 14.5413C28.6747 14.4266 28.5906 14.3082 28.5272 14.1453C28.4599 13.9725 28.4599 13.7554 28.4599 13.321V4.00017M17.2796 4H31.5091" stroke="#304D6D" stroke-width="3" stroke-linecap="round" stroke-linejoin="round"/>
</svg>
