<svg width="26" height="26" viewBox="0 0 26 26" fill="none" xmlns="http://www.w3.org/2000/svg">
<path d="M13.002 0.5C6.10195 0.5 0.501953 6.1 0.501953 13C0.501953 19.9 6.10195 25.5 13.002 25.5C19.902 25.5 25.502 19.9 25.502 13C25.502 6.1 19.902 0.5 13.002 0.5ZM18.802 9C18.6145 10.975 17.802 15.775 17.3895 17.9875C17.2145 18.925 16.8645 19.2375 16.5395 19.275C15.8145 19.3375 15.2645 18.8 14.5645 18.3375C13.4645 17.6125 12.8395 17.1625 11.777 16.4625C10.5395 15.65 11.3395 15.2 12.052 14.475C12.2395 14.2875 15.4395 11.375 15.502 11.1125C15.5106 11.0727 15.5095 11.0315 15.4986 10.9923C15.4877 10.953 15.4674 10.9171 15.4395 10.8875C15.3645 10.825 15.2645 10.85 15.177 10.8625C15.0645 10.8875 13.3145 12.05 9.902 14.35C9.402 14.6875 8.952 14.8625 8.552 14.85C8.102 14.8375 7.25195 14.6 6.61445 14.3875C5.82695 14.1375 5.21445 14 5.26445 13.5625C5.28945 13.3375 5.60195 13.1125 6.18945 12.875C9.8395 11.2875 12.2645 10.2375 13.477 9.7375C16.952 8.2875 17.6645 8.0375 18.1395 8.0375C18.2395 8.0375 18.477 8.0625 18.627 8.1875C18.752 8.2875 18.7895 8.425 18.802 8.525C18.7895 8.6 18.8145 8.825 18.802 9Z" fill="#304D6D"/>
</svg>
