<svg width="26" height="26" viewBox="0 0 26 26" fill="none" xmlns="http://www.w3.org/2000/svg">
<path d="M0.505017 25.9746L2.19502 19.7646C1.08144 17.8557 0.496387 15.6846 0.500017 13.4746C0.500017 6.57086 6.09627 0.974609 13 0.974609C19.9038 0.974609 25.5 6.57086 25.5 13.4746C25.5 20.3784 19.9038 25.9746 13 25.9746C10.791 25.9782 8.62082 25.3936 6.71252 24.2809L0.505017 25.9746ZM8.48882 7.60961C8.32732 7.61963 8.16962 7.66215 8.02502 7.73461C7.88942 7.8114 7.76564 7.90739 7.65752 8.0196C7.50752 8.1609 7.42252 8.2834 7.33127 8.4021C6.86929 9.0034 6.62078 9.7414 6.62502 10.4996C6.62752 11.1121 6.78752 11.7084 7.03752 12.2659C7.54877 13.3934 8.39002 14.5871 9.50132 15.6934C9.76882 15.9596 10.03 16.2271 10.3113 16.4759C11.6905 17.6902 13.3341 18.5659 15.1113 19.0334L15.8225 19.1421C16.0538 19.1546 16.285 19.1371 16.5175 19.1259C16.8815 19.1071 17.237 19.0085 17.5588 18.8371C17.7224 18.7528 17.8822 18.661 18.0375 18.5621C18.0375 18.5621 18.0913 18.5271 18.1938 18.4496C18.3625 18.3246 18.4663 18.2359 18.6063 18.0896C18.71 17.9821 18.8 17.8559 18.8688 17.7121C18.9663 17.5084 19.0638 17.1196 19.1038 16.7959C19.1338 16.5484 19.125 16.4134 19.1213 16.3296C19.1163 16.1959 19.005 16.0571 18.8838 15.9984L18.1563 15.6721C18.1563 15.6721 17.0688 15.1984 16.405 14.8959C16.335 14.8654 16.26 14.848 16.1838 14.8446C16.0982 14.8358 16.0118 14.8454 15.9303 14.8728C15.8488 14.9002 15.7741 14.9447 15.7113 15.0034V15.0009C15.705 15.0009 15.6213 15.0721 14.7175 16.1671C14.6656 16.2368 14.5942 16.2895 14.5123 16.3184C14.4303 16.3474 14.3416 16.3513 14.2575 16.3296C14.1761 16.3078 14.0963 16.2803 14.0188 16.2471C13.8638 16.1821 13.81 16.1571 13.7038 16.1109L13.6975 16.1084C12.9824 15.7961 12.3203 15.3744 11.735 14.8584C11.5775 14.7209 11.4313 14.5709 11.2813 14.4259C10.7895 13.9549 10.3609 13.4221 10.0063 12.8409L9.93252 12.7221C9.87952 12.6423 9.83672 12.5562 9.80502 12.4659C9.75752 12.2821 9.88132 12.1346 9.88132 12.1346C9.88132 12.1346 10.185 11.8021 10.3263 11.6221C10.4439 11.4725 10.5536 11.3169 10.655 11.1559C10.8025 10.9184 10.8488 10.6746 10.7713 10.4859C10.4213 9.6309 10.0588 8.7796 9.68632 7.93461C9.61252 7.76711 9.39382 7.64711 9.19502 7.62336C9.12752 7.61586 9.06002 7.60836 8.99252 7.60336C8.82462 7.59502 8.65642 7.59669 8.48882 7.60836V7.60961Z" fill="#2AA834"/>
</svg>
